<svg xmlns="http://www.w3.org/2000/svg" viewBox="0 0 345 373.41"><defs><style>.cls-1{fill:#1b75bb;}.cls-2{fill:#8bc53f;}</style></defs><g id="Layer_2" data-name="Layer 2"><g id="Layer_2-2" data-name="Layer 2"><path class="cls-1" d="M345,152.68a37.38,37.38,0,0,1-16.38,3.79c-.75,0-1.49-.06-2.23-.12-25.74,45.71-29.1,51.67-41.89,74.42a34.71,34.71,0,0,1,6.71,20.55c0,19-15,34.36-33.51,34.36s-33.51-15.38-33.51-34.36c0-1,.07-2.08.16-3.11L110.49,180.77a32.65,32.65,0,0,1-32.19,8.89l-38,68.1a34.67,34.67,0,0,1,9.54,24c0,18.37-14.07,33.32-31.75,34.27-6.15.46-11,.25-15.29-1.13l.43,58.54H345Z"/><path class="cls-2" d="M321.54,88.55l-9.87-5.84v-63H252.29V47.56L171.93,0,0,101.76v150a32.69,32.69,0,0,1,16.32-4.37c1,0,2,.07,2.94.16,25-44.4,28.06-49.82,40.11-71.4a34.75,34.75,0,0,1-6.07-19.67c0-19,15-34.35,33.51-34.35s33.51,15.38,33.51,34.35c0,1-.07,2-.15,2.95l114.07,67.4A33,33,0,0,1,257.7,217a32.47,32.47,0,0,1,7.49.9l39.95-71.26a34.68,34.68,0,0,1-10-24.49A34.18,34.18,0,0,1,321.54,88.55Z"/></g></g></svg>